<?xml version="1.0" encoding="UTF-8" standalone="no" ?>
<!DOCTYPE svg PUBLIC "-//W3C//DTD SVG 1.1//EN" "http://www.w3.org/Graphics/SVG/1.1/DTD/svg11.dtd">
<svg xmlns="http://www.w3.org/2000/svg" xmlns:xlink="http://www.w3.org/1999/xlink" version="1.1" width="1000" height="120" viewBox="0 0 1000 120" xml:space="preserve">
<desc>Created with Fabric.js 4.6.0</desc>
<defs>
</defs>
<g transform="matrix(1.02 0 0 1 498.51 60)" id="CxjagigDmF3_mmvuWzHcA"  >
<path style="stroke: rgb(152,69,102); stroke-width: 0; stroke-dasharray: none; stroke-linecap: butt; stroke-dashoffset: 0; stroke-linejoin: miter; stroke-miterlimit: 4; fill: rgb(75,73,78); fill-rule: nonzero; opacity: 1;" vector-effect="non-scaling-stroke"  transform=" translate(0, 0)" d="M -500 -50 L 500 -50 L 500 50 L -500 50 z" stroke-linecap="round" />
</g>
<g transform="matrix(1 0 0 2 235 120)" id="N5gtfgedezX3jCweq1eSE"  >
<path style="stroke: rgb(132,28,41); stroke-width: 0; stroke-dasharray: none; stroke-linecap: butt; stroke-dashoffset: 0; stroke-linejoin: miter; stroke-miterlimit: 4; fill: rgb(163,163,163); fill-rule: nonzero; opacity: 1;" vector-effect="non-scaling-stroke"  transform=" translate(0, 0)" d="M -235 -5 L 235 -5 L 235 5 L -235 5 z" stroke-linecap="round" />
</g>
<g transform="matrix(1.04 0 0 2 763.55 120)" id="vBISIE61gjWRwmWr_0Mfo"  >
<path style="stroke: rgb(132,28,41); stroke-width: 0; stroke-dasharray: none; stroke-linecap: butt; stroke-dashoffset: 0; stroke-linejoin: miter; stroke-miterlimit: 4; fill: rgb(163,163,163); fill-rule: nonzero; opacity: 1;" vector-effect="non-scaling-stroke"  transform=" translate(0, 0)" d="M -235 -5 L 235 -5 L 235 5 L -235 5 z" stroke-linecap="round" />
</g>
<g transform="matrix(1 0 0 2 100 0)" id="TNs_tE-lupayfnC-9DVsv"  >
<path style="stroke: rgb(132,28,41); stroke-width: 0; stroke-dasharray: none; stroke-linecap: butt; stroke-dashoffset: 0; stroke-linejoin: miter; stroke-miterlimit: 4; fill: rgb(163,163,163); fill-rule: nonzero; opacity: 1;" vector-effect="non-scaling-stroke"  transform=" translate(0, 0)" d="M -100 -5 L 100 -5 L 100 5 L -100 5 z" stroke-linecap="round" />
</g>
<g transform="matrix(1 0 0 2.52 350 -2.62)" id="Xn8bAunyFaLH__k1EFOXc"  >
<path style="stroke: rgb(132,28,41); stroke-width: 0; stroke-dasharray: none; stroke-linecap: butt; stroke-dashoffset: 0; stroke-linejoin: miter; stroke-miterlimit: 4; fill: rgb(163,163,163); fill-rule: nonzero; opacity: 1;" vector-effect="non-scaling-stroke"  transform=" translate(0, 0)" d="M -100 -5 L 100 -5 L 100 5 L -100 5 z" stroke-linecap="round" />
</g>
<g transform="matrix(1 0 0 2 775 0)" id="1elOMjanxYTNlWzHRugG3"  >
<path style="stroke: rgb(132,28,41); stroke-width: 0; stroke-dasharray: none; stroke-linecap: butt; stroke-dashoffset: 0; stroke-linejoin: miter; stroke-miterlimit: 4; fill: rgb(163,163,163); fill-rule: nonzero; opacity: 1;" vector-effect="non-scaling-stroke"  transform=" translate(0, 0)" d="M -225 -5 L 225 -5 L 225 5 L -225 5 z" stroke-linecap="round" />
</g>
<g transform="matrix(0 1 -1 0 81 58.5)" id="vM6LvHQdgWG4-LOPJbOZH"  >
<path style="stroke: rgb(246,78,252); stroke-width: 0; stroke-dasharray: none; stroke-linecap: butt; stroke-dashoffset: 0; stroke-linejoin: miter; stroke-miterlimit: 4; fill: rgb(255,255,255); fill-opacity: 0.92; fill-rule: nonzero; opacity: 1;" vector-effect="non-scaling-stroke"  transform=" translate(-3.5, -22)" d="M 0 0 L 7 0 L 7 44 L 0 44 z" stroke-linecap="round" />
</g>
<g transform="matrix(0 1 -1 0 22 58.5)" id="tXhrxrnKhEzln3FuZSDVc"  >
<path style="stroke: rgb(246,78,252); stroke-width: 0; stroke-dasharray: none; stroke-linecap: butt; stroke-dashoffset: 0; stroke-linejoin: miter; stroke-miterlimit: 4; fill: rgb(255,255,255); fill-opacity: 0.92; fill-rule: nonzero; opacity: 1;" vector-effect="non-scaling-stroke"  transform=" translate(-3.5, -22)" d="M 0 0 L 7 0 L 7 44 L 0 44 z" stroke-linecap="round" />
</g>
<g transform="matrix(0 1 -1 0 199 58.5)" id="liKaBVCEsUwxmrsYBhx9F"  >
<path style="stroke: rgb(246,78,252); stroke-width: 0; stroke-dasharray: none; stroke-linecap: butt; stroke-dashoffset: 0; stroke-linejoin: miter; stroke-miterlimit: 4; fill: rgb(255,255,255); fill-opacity: 0.92; fill-rule: nonzero; opacity: 1;" vector-effect="non-scaling-stroke"  transform=" translate(-3.5, -22)" d="M 0 0 L 7 0 L 7 44 L 0 44 z" stroke-linecap="round" />
</g>
<g transform="matrix(0 1 -1 0 140 58.5)" id="Jiu8PzMtBBtTfMJjxla1W"  >
<path style="stroke: rgb(246,78,252); stroke-width: 0; stroke-dasharray: none; stroke-linecap: butt; stroke-dashoffset: 0; stroke-linejoin: miter; stroke-miterlimit: 4; fill: rgb(255,255,255); fill-opacity: 0.92; fill-rule: nonzero; opacity: 1;" vector-effect="non-scaling-stroke"  transform=" translate(-3.5, -22)" d="M 0 0 L 7 0 L 7 44 L 0 44 z" stroke-linecap="round" />
</g>
<g transform="matrix(0 1 -1 0 317 58.5)" id="H7mszq2TQZiVoL7xFrM35"  >
<path style="stroke: rgb(246,78,252); stroke-width: 0; stroke-dasharray: none; stroke-linecap: butt; stroke-dashoffset: 0; stroke-linejoin: miter; stroke-miterlimit: 4; fill: rgb(255,255,255); fill-opacity: 0.92; fill-rule: nonzero; opacity: 1;" vector-effect="non-scaling-stroke"  transform=" translate(-3.5, -22)" d="M 0 0 L 7 0 L 7 44 L 0 44 z" stroke-linecap="round" />
</g>
<g transform="matrix(0 1 -1 0 258 58.5)" id="ralw64uvme75F5ZzcdmiA"  >
<path style="stroke: rgb(246,78,252); stroke-width: 0; stroke-dasharray: none; stroke-linecap: butt; stroke-dashoffset: 0; stroke-linejoin: miter; stroke-miterlimit: 4; fill: rgb(255,255,255); fill-opacity: 0.92; fill-rule: nonzero; opacity: 1;" vector-effect="non-scaling-stroke"  transform=" translate(-3.5, -22)" d="M 0 0 L 7 0 L 7 44 L 0 44 z" stroke-linecap="round" />
</g>
<g transform="matrix(0 1 -1 0 435 58.5)" id="SMnA3UyCIk_bOAUUKpvLz"  >
<path style="stroke: rgb(246,78,252); stroke-width: 0; stroke-dasharray: none; stroke-linecap: butt; stroke-dashoffset: 0; stroke-linejoin: miter; stroke-miterlimit: 4; fill: rgb(255,255,255); fill-opacity: 0.92; fill-rule: nonzero; opacity: 1;" vector-effect="non-scaling-stroke"  transform=" translate(-3.5, -22)" d="M 0 0 L 7 0 L 7 44 L 0 44 z" stroke-linecap="round" />
</g>
<g transform="matrix(0 1 -1 0 376 58.5)" id="2g_Nor5CyjXpGVKTha3KR"  >
<path style="stroke: rgb(246,78,252); stroke-width: 0; stroke-dasharray: none; stroke-linecap: butt; stroke-dashoffset: 0; stroke-linejoin: miter; stroke-miterlimit: 4; fill: rgb(255,255,255); fill-opacity: 0.92; fill-rule: nonzero; opacity: 1;" vector-effect="non-scaling-stroke"  transform=" translate(-3.5, -22)" d="M 0 0 L 7 0 L 7 44 L 0 44 z" stroke-linecap="round" />
</g>
<g transform="matrix(0 1 -1 0 564.46 58.5)" id="5MCNnGu3z5oIOjFl7FkJJ"  >
<path style="stroke: rgb(246,78,252); stroke-width: 0; stroke-dasharray: none; stroke-linecap: butt; stroke-dashoffset: 0; stroke-linejoin: miter; stroke-miterlimit: 4; fill: rgb(255,255,255); fill-opacity: 0.92; fill-rule: nonzero; opacity: 1;" vector-effect="non-scaling-stroke"  transform=" translate(-3.5, -22)" d="M 0 0 L 7 0 L 7 44 L 0 44 z" stroke-linecap="round" />
</g>
<g transform="matrix(0 1 -1 0 683.13 58.5)" id="8bWuURoBFmE0V2jR1kYNG"  >
<path style="stroke: rgb(246,78,252); stroke-width: 0; stroke-dasharray: none; stroke-linecap: butt; stroke-dashoffset: 0; stroke-linejoin: miter; stroke-miterlimit: 4; fill: rgb(255,255,255); fill-opacity: 0.92; fill-rule: nonzero; opacity: 1;" vector-effect="non-scaling-stroke"  transform=" translate(-3.5, -22)" d="M 0 0 L 7 0 L 7 44 L 0 44 z" stroke-linecap="round" />
</g>
<g transform="matrix(0 1 -1 0 624.13 58.5)" id="2Isuy26AhfWRrCDJ6HHWT"  >
<path style="stroke: rgb(246,78,252); stroke-width: 0; stroke-dasharray: none; stroke-linecap: butt; stroke-dashoffset: 0; stroke-linejoin: miter; stroke-miterlimit: 4; fill: rgb(255,255,255); fill-opacity: 0.92; fill-rule: nonzero; opacity: 1;" vector-effect="non-scaling-stroke"  transform=" translate(-3.5, -22)" d="M 0 0 L 7 0 L 7 44 L 0 44 z" stroke-linecap="round" />
</g>
<g transform="matrix(0 1 -1 0 801.13 58.5)" id="7i84Pzg8SVJRZowUJx0PT"  >
<path style="stroke: rgb(246,78,252); stroke-width: 0; stroke-dasharray: none; stroke-linecap: butt; stroke-dashoffset: 0; stroke-linejoin: miter; stroke-miterlimit: 4; fill: rgb(255,255,255); fill-opacity: 0.92; fill-rule: nonzero; opacity: 1;" vector-effect="non-scaling-stroke"  transform=" translate(-3.5, -22)" d="M 0 0 L 7 0 L 7 44 L 0 44 z" stroke-linecap="round" />
</g>
<g transform="matrix(0 1 -1 0 742.13 58.5)" id="FMZiUqye1RJDBEJQpD0kO"  >
<path style="stroke: rgb(246,78,252); stroke-width: 0; stroke-dasharray: none; stroke-linecap: butt; stroke-dashoffset: 0; stroke-linejoin: miter; stroke-miterlimit: 4; fill: rgb(255,255,255); fill-opacity: 0.92; fill-rule: nonzero; opacity: 1;" vector-effect="non-scaling-stroke"  transform=" translate(-3.5, -22)" d="M 0 0 L 7 0 L 7 44 L 0 44 z" stroke-linecap="round" />
</g>
<g transform="matrix(0 1 -1 0 919.13 58.5)" id="oOj8kinOhcTCGooop65XF"  >
<path style="stroke: rgb(246,78,252); stroke-width: 0; stroke-dasharray: none; stroke-linecap: butt; stroke-dashoffset: 0; stroke-linejoin: miter; stroke-miterlimit: 4; fill: rgb(255,255,255); fill-opacity: 0.92; fill-rule: nonzero; opacity: 1;" vector-effect="non-scaling-stroke"  transform=" translate(-3.5, -22)" d="M 0 0 L 7 0 L 7 44 L 0 44 z" stroke-linecap="round" />
</g>
<g transform="matrix(0 1 -1 0 978.13 58.5)" id="3Z9pR_FJicVpf1ZDggxuS"  >
<path style="stroke: rgb(246,78,252); stroke-width: 0; stroke-dasharray: none; stroke-linecap: butt; stroke-dashoffset: 0; stroke-linejoin: miter; stroke-miterlimit: 4; fill: rgb(255,255,255); fill-opacity: 0.92; fill-rule: nonzero; opacity: 1;" vector-effect="non-scaling-stroke"  transform=" translate(-3.5, -22)" d="M 0 0 L 7 0 L 7 44 L 0 44 z" stroke-linecap="round" />
</g>
<g transform="matrix(0 1 -1 0 860.13 58.5)" id="7wCyayDZ5UdExsZUA2iIj"  >
<path style="stroke: rgb(246,78,252); stroke-width: 0; stroke-dasharray: none; stroke-linecap: butt; stroke-dashoffset: 0; stroke-linejoin: miter; stroke-miterlimit: 4; fill: rgb(255,255,255); fill-opacity: 0.92; fill-rule: nonzero; opacity: 1;" vector-effect="non-scaling-stroke"  transform=" translate(-3.5, -22)" d="M 0 0 L 7 0 L 7 44 L 0 44 z" stroke-linecap="round" />
</g>
<g transform="matrix(3.55 0 0 0.74 500 0.39)" id="kCcl8btkhEeoS1V3R153s"  >
<path style="stroke: rgb(40,10,160); stroke-width: 0; stroke-dasharray: none; stroke-linecap: butt; stroke-dashoffset: 0; stroke-linejoin: miter; stroke-miterlimit: 4; fill: rgb(75,73,78); fill-rule: nonzero; opacity: 1;" vector-effect="non-scaling-stroke"  transform=" translate(0, 0)" d="M -14.08451 -14.08451 L 14.0845 -14.08451 L 14.0845 14.0845 L -14.08451 14.0845 z" stroke-linecap="round" />
</g>
<g transform="matrix(1 0 0 0.45 500 10)" id="o0nSGV97CiEySYx9dwd2z"  >
<path style="stroke: rgb(95,243,81); stroke-width: 0; stroke-dasharray: none; stroke-linecap: butt; stroke-dashoffset: 0; stroke-linejoin: miter; stroke-miterlimit: 4; fill: rgb(255,255,255); fill-rule: nonzero; opacity: 1;" vector-effect="non-scaling-stroke"  transform=" translate(0, 0)" d="M -3.5 -22 L 3.5 -22 L 3.5 22 L -3.5 22 z" stroke-linecap="round" />
</g>
<g transform="matrix(1.58 0 0 0.95 495 115)" id="ftXSMt1cUYS8N1Pty6u3K"  >
<path style="stroke: rgb(64,37,240); stroke-width: 0; stroke-dasharray: none; stroke-linecap: butt; stroke-dashoffset: 0; stroke-linejoin: miter; stroke-miterlimit: 4; fill: rgb(75,73,78); fill-rule: nonzero; opacity: 1;" vector-effect="non-scaling-stroke"  transform=" translate(0, 0)" d="M -15.82278 -15.82278 L 15.82279 -15.82278 L 15.82279 15.82279 L -15.82278 15.82279 z" stroke-linecap="round" />
</g>
<g transform="matrix(0 1 -1 0 495.5 110)" id="GMFUuD8glBv1G_DrQWOtC"  >
<path style="stroke: none; stroke-width: 1; stroke-dasharray: none; stroke-linecap: butt; stroke-dashoffset: 0; stroke-linejoin: miter; stroke-miterlimit: 4; fill: rgb(255,255,255); fill-rule: nonzero; opacity: 1;" vector-effect="non-scaling-stroke"  transform=" translate(-10, -15)" d="M 10.2924 30 L 20 15 L 10.2926 0 L 10.2926 9.51 L 0 9.51 L 0 20.516399999999997 L 10.2928 20.516399999999997 z" stroke-linecap="round" />
</g>
<g transform="matrix(1.67 0 0 1.05 225 0.44)" id="4rWU8S1jZXJY1lDdVkdKM"  >
<path style="stroke: rgb(218,29,196); stroke-width: 0; stroke-dasharray: none; stroke-linecap: butt; stroke-dashoffset: 0; stroke-linejoin: miter; stroke-miterlimit: 4; fill: rgb(75,73,78); fill-rule: nonzero; opacity: 1;" vector-effect="non-scaling-stroke"  transform=" translate(0, 0)" d="M -14.92537 -14.92537 L 14.925380000000002 -14.92537 L 14.925380000000002 14.925380000000002 L -14.92537 14.925380000000002 z" stroke-linecap="round" />
</g>
<g transform="matrix(0 -1 1 0 225.16 10)" id="FZ4X9uSUhgtv47khGJgwb"  >
<path style="stroke: none; stroke-width: 1; stroke-dasharray: none; stroke-linecap: butt; stroke-dashoffset: 0; stroke-linejoin: miter; stroke-miterlimit: 4; fill: rgb(255,255,255); fill-rule: nonzero; opacity: 1;" vector-effect="non-scaling-stroke"  transform=" translate(-10, -15)" d="M 10.2924 30 L 20 15 L 10.2926 0 L 10.2926 9.51 L 0 9.51 L 0 20.516399999999997 L 10.2928 20.516399999999997 z" stroke-linecap="round" />
</g>
</svg>