<?xml version="1.0" encoding="UTF-8" standalone="no" ?>
<!DOCTYPE svg PUBLIC "-//W3C//DTD SVG 1.1//EN" "http://www.w3.org/Graphics/SVG/1.1/DTD/svg11.dtd">
<svg xmlns="http://www.w3.org/2000/svg" xmlns:xlink="http://www.w3.org/1999/xlink" version="1.1" width="120" height="400" viewBox="0 0 120 400" xml:space="preserve">
<desc>Created with Fabric.js 4.6.0</desc>
<defs>
</defs>
<g transform="matrix(1.67 0 0 5.91 68.52 203.07)" id="jpMFlrClJlJmvaryuLKCw"  >
<path style="stroke: rgb(71,106,131); stroke-width: 0; stroke-dasharray: none; stroke-linecap: butt; stroke-dashoffset: 0; stroke-linejoin: miter; stroke-miterlimit: 4; fill: rgb(75,73,78); fill-rule: nonzero; opacity: 1;" vector-effect="non-scaling-stroke"  transform=" translate(0, 0)" d="M -35.01401 -35.01401 L 35.013999999999996 -35.01401 L 35.013999999999996 35.013999999999996 L -35.01401 35.013999999999996 z" stroke-linecap="round" />
</g>
<g transform="matrix(1 0 0 1 109.52 195.07)" id="VKZ-mf0eKQP9OXlMLGT7u"  >
<path style="stroke: none; stroke-width: 1; stroke-dasharray: none; stroke-linecap: butt; stroke-dashoffset: 0; stroke-linejoin: miter; stroke-miterlimit: 4; fill: rgb(255,255,255); fill-rule: nonzero; opacity: 1;" vector-effect="non-scaling-stroke"  transform=" translate(-10, -15)" d="M 10.2925 30 L 20 15 L 10.2925 0 L 10.2925 9.51 L 0 9.51 L 0 20.5163 L 10.2925 20.5163 z" stroke-linecap="round" />
</g>
<g transform="matrix(0.1 0 0 0.63 60.02 52.57)" id="qNnxfIWKWaVOP33yKOJhq"  >
<path style="stroke: rgb(246,78,252); stroke-width: 0; stroke-dasharray: none; stroke-linecap: butt; stroke-dashoffset: 0; stroke-linejoin: miter; stroke-miterlimit: 4; fill: rgb(255,255,255); fill-opacity: 0.92; fill-rule: nonzero; opacity: 1;" vector-effect="non-scaling-stroke"  transform=" translate(0, 0)" d="M -35.01401 -35.01401 L 35.013999999999996 -35.01401 L 35.013999999999996 35.013999999999996 L -35.01401 35.013999999999996 z" stroke-linecap="round" />
</g>
<g transform="matrix(0.1 0 0 0.21 59.52 8.57)" id="iFQAwuZYqxKkvg-UMr8ZR"  >
<path style="stroke: rgb(246,78,252); stroke-width: 0; stroke-dasharray: none; stroke-linecap: butt; stroke-dashoffset: 0; stroke-linejoin: miter; stroke-miterlimit: 4; fill: rgb(255,255,255); fill-opacity: 0.92; fill-rule: nonzero; opacity: 1;" vector-effect="non-scaling-stroke"  transform=" translate(0, 0)" d="M -35.01401 -35.01401 L 35.013999999999996 -35.01401 L 35.013999999999996 35.013999999999996 L -35.01401 35.013999999999996 z" stroke-linecap="round" />
</g>
<g transform="matrix(0.1 0 0 0.63 60.02 111.57)" id="RX3v8uW8EYorgelCPD-vm"  >
<path style="stroke: rgb(246,78,252); stroke-width: 0; stroke-dasharray: none; stroke-linecap: butt; stroke-dashoffset: 0; stroke-linejoin: miter; stroke-miterlimit: 4; fill: rgb(255,255,255); fill-opacity: 0.92; fill-rule: nonzero; opacity: 1;" vector-effect="non-scaling-stroke"  transform=" translate(0, 0)" d="M -35.01401 -35.01401 L 35.013999999999996 -35.01401 L 35.013999999999996 35.013999999999996 L -35.01401 35.013999999999996 z" stroke-linecap="round" />
</g>
<g transform="matrix(0.1 0 0 0.46 60.02 164.57)" id="iPOyXD8W9vXezFoDQ9ktP"  >
<path style="stroke: rgb(246,78,252); stroke-width: 0; stroke-dasharray: none; stroke-linecap: butt; stroke-dashoffset: 0; stroke-linejoin: miter; stroke-miterlimit: 4; fill: rgb(255,255,255); fill-opacity: 0.92; fill-rule: nonzero; opacity: 1;" vector-effect="non-scaling-stroke"  transform=" translate(0, 0)" d="M -35.01401 -35.01401 L 35.013999999999996 -35.01401 L 35.013999999999996 35.013999999999996 L -35.01401 35.013999999999996 z" stroke-linecap="round" />
</g>
<g transform="matrix(1 0 0 1.25 60.02 240.57)" id="nPmJ7gQ7cOc-bfWwXFL0S"  >
<path style="stroke: rgb(246,78,252); stroke-width: 0; stroke-dasharray: none; stroke-linecap: butt; stroke-dashoffset: 0; stroke-linejoin: miter; stroke-miterlimit: 4; fill: rgb(255,255,255); fill-opacity: 0.92; fill-rule: nonzero; opacity: 1;" vector-effect="non-scaling-stroke"  transform=" translate(0, 0)" d="M -3.5 -16 L 3.5 -16 L 3.5 16 L -3.5 16 z" stroke-linecap="round" />
</g>
<g transform="matrix(0.1 0 0 0.63 61.02 298.57)" id="8WbVtWXygJxY8DrAt6OVX"  >
<path style="stroke: rgb(246,78,252); stroke-width: 0; stroke-dasharray: none; stroke-linecap: butt; stroke-dashoffset: 0; stroke-linejoin: miter; stroke-miterlimit: 4; fill: rgb(255,255,255); fill-opacity: 0.92; fill-rule: nonzero; opacity: 1;" vector-effect="non-scaling-stroke"  transform=" translate(0, 0)" d="M -35.01401 -35.01401 L 35.013999999999996 -35.01401 L 35.013999999999996 35.013999999999996 L -35.01401 35.013999999999996 z" stroke-linecap="round" />
</g>
<g transform="matrix(0.1 0 0 0.63 61.02 357.57)" id="OJMx4hBpa9kpB8IiT6be-"  >
<path style="stroke: rgb(246,78,252); stroke-width: 0; stroke-dasharray: none; stroke-linecap: butt; stroke-dashoffset: 0; stroke-linejoin: miter; stroke-miterlimit: 4; fill: rgb(255,255,255); fill-opacity: 0.92; fill-rule: nonzero; opacity: 1;" vector-effect="non-scaling-stroke"  transform=" translate(0, 0)" d="M -35.01401 -35.01401 L 35.013999999999996 -35.01401 L 35.013999999999996 35.013999999999996 L -35.01401 35.013999999999996 z" stroke-linecap="round" />
</g>
<g transform="matrix(0.1 0 0 0.63 61.09 416.06)" id="1hdbKiMxJwXvqUJq0Qenm"  >
<path style="stroke: rgb(246,78,252); stroke-width: 0; stroke-dasharray: none; stroke-linecap: butt; stroke-dashoffset: 0; stroke-linejoin: miter; stroke-miterlimit: 4; fill: rgb(255,255,255); fill-opacity: 0.92; fill-rule: nonzero; opacity: 1;" vector-effect="non-scaling-stroke"  transform=" translate(0, 0)" d="M -35.01401 -35.01401 L 35.013999999999996 -35.01401 L 35.013999999999996 35.013999999999996 L -35.01401 35.013999999999996 z" stroke-linecap="round" />
</g>
<g transform="matrix(1.12 0 0 19.44 -1.48 200.07)" id="XR5TaRjzgUw0OJaemu0lo"  >
<path style="stroke: rgb(234,206,241); stroke-width: 0; stroke-dasharray: none; stroke-linecap: butt; stroke-dashoffset: 0; stroke-linejoin: miter; stroke-miterlimit: 4; fill: rgb(163,163,163); fill-rule: nonzero; opacity: 1;" vector-effect="non-scaling-stroke"  transform=" translate(0, 0)" d="M -10.28807 -10.28807 L 10.28806 -10.28807 L 10.28806 10.28806 L -10.28807 10.28806 z" stroke-linecap="round" />
</g>
<g transform="matrix(1.5 0 0 1 117.52 85.07)" id="WPjuOz_SlWKviJmarBQyj"  >
<path style="stroke: rgb(234,206,241); stroke-width: 0; stroke-dasharray: none; stroke-linecap: butt; stroke-dashoffset: 0; stroke-linejoin: miter; stroke-miterlimit: 4; fill: rgb(163,163,163); fill-rule: nonzero; opacity: 1;" vector-effect="non-scaling-stroke"  transform=" translate(0, 0)" d="M -5 -85 L 5 -85 L 5 85 L -5 85 z" stroke-linecap="round" />
</g>
<g transform="matrix(-0.97 0 0 -8.75 120.02 310.07)" id="gvo7a7NvHHkREaDyvaTf5"  >
<path style="stroke: rgb(234,206,241); stroke-width: 0; stroke-dasharray: none; stroke-linecap: butt; stroke-dashoffset: 0; stroke-linejoin: miter; stroke-miterlimit: 4; fill: rgb(163,163,163); fill-rule: nonzero; opacity: 1;" vector-effect="non-scaling-stroke"  transform=" translate(0, 0)" d="M -10.28807 -10.28807 L 10.28806 -10.28807 L 10.28806 10.28806 L -10.28807 10.28806 z" stroke-linecap="round" />
</g>
</svg>